<svg viewBox="0 0 252 72" xmlns="http://www.w3.org/2000/svg" xmlns:xlink="http://www.w3.org/1999/xlink">
  <g>
    <use xlink:href="#a" transform="translate(0 2.77)" fill="#F8E81C" />
    <use xlink:href="#b" transform="translate(31.504 4.534)" fill="#F8E71C" />
    <g transform="translate(30.73)" fill="#F8E71C">
      <use xlink:href="#c"/>
      <use xlink:href="#d"/>
    </g>
  </g>
  <defs>
    <path id="a" fill-rule="evenodd" d="M225.532 27.362l-5.878 3.048 1.083-6.532-4.716-4.648 6.54-.99 2.98-5.92 2.97 5.92 6.55.99-4.71 4.648 1.09 6.532-5.89-3.048zm-36.96 24.485l-5.58.726 2.77-4.903-2.41-5.083 5.52 1.113 4.09-3.867.65 5.59 4.94 2.694-5.11 2.342-1.03 5.53-3.84-4.15zm-37.04-30.007l-3.81 4.14-1.035-5.53-5.12-2.35 4.94-2.69.64-5.59 4.09 3.87 5.52-1.11-2.42 5.08 2.76 4.9-5.565-.72zm-36.6 15.41l-1.085 4.845-3.23-3.77-4.944.462 2.59-4.238-1.97-4.56 4.83 1.15 3.73-3.29.4 4.95 4.27 2.52-4.59 1.93zm-18 37l-1.083 4.847-3.23-3.77-4.95.467 2.59-4.238L88.29 67l4.83 1.15 3.73-3.29.4 4.95 4.28 2.52-4.6 1.92zm-24.36-50.09l-2.69 2.925-.73-3.905-3.61-1.653 3.487-1.903.45-3.946 2.88 2.73 3.89-.79-1.71 3.59 1.95 3.46-3.93-.508zm-31.57 30.138l-3.79 1.184 1.32-3.742-2.3-3.23 3.97.1 2.37-3.19 1.133 3.81 3.766 1.27-3.27 2.254-.05 3.973-3.15-2.43zM3.18 33.31l-2.527.793.88-2.5L0 29.443l2.648.066 1.58-2.13.755 2.54 2.51.84-2.18 1.51-.02 2.64-2.11-1.6zM15.31 5.93l-2.1 1.61-.02-2.65-2.18-1.5 2.51-.85.76-2.54 1.58 2.13 2.65-.07-1.56 2.17.88 2.5-2.52-.8zm3.57 55.375l-2.103 1.61-.03-2.65-2.18-1.503 2.51-.844.75-2.54 1.58 2.124 2.64-.065-1.54 2.16.88 2.497-2.508-.79zm70.65-10.24l-1.426 2.23-.93-2.48-2.565-.668 2.07-1.65-.16-2.64 2.21 1.457 2.46-.967-.71 2.554 1.68 2.05"/>
    <path id="b" d="M119.028 50.725v-2.17c-2.762 0-5-2.24-5-5.01v-.16c-1.165-.413-2-1.524-2-2.83 0-1.657 1.343-3 3-3s3 1.343 3 3c0 1.306-.835 2.417-2 2.83v.16c0 1.665 1.344 3.01 3.002 3.01h1.996c1.664 0 3.002-1.342 3.002-3.01v-.16c-1.165-.413-2-1.524-2-2.83 0-1.657 1.343-3 3-3s3 1.343 3 3c0 1.306-.835 2.417-2 2.83v.16c0 2.767-2.228 5.01-5 5.01v2.17c1.165.413 2 1.524 2 2.83 0 1.657-1.343 3-3 3s-3-1.343-3-3c0-1.306.835-2.417 2-2.83zm-4-9.17c.552 0 1-.448 1-1s-.448-1-1-1-1 .448-1 1 .448 1 1 1zm10 0c.552 0 1-.448 1-1s-.448-1-1-1-1 .448-1 1 .448 1 1 1zm-5 13c.552 0 1-.448 1-1s-.448-1-1-1-1 .448-1 1 .448 1 1 1zm53 20.17v-2.17c-2.762 0-5-2.24-5-5.01v-.16c-1.165-.413-2-1.524-2-2.83 0-1.657 1.343-3 3-3s3 1.343 3 3c0 1.306-.835 2.417-2 2.83v.16c0 1.665 1.344 3.01 3.002 3.01h1.996c1.664 0 3.002-1.342 3.002-3.01v-.16c-1.165-.413-2-1.524-2-2.83 0-1.657 1.343-3 3-3s3 1.343 3 3c0 1.306-.835 2.417-2 2.83v.16c0 2.767-2.228 5.01-5 5.01v2.17c1.165.413 2 1.524 2 2.83 0 1.657-1.343 3-3 3s-3-1.343-3-3c0-1.306.835-2.417 2-2.83zm-4-9.17c.552 0 1-.448 1-1s-.448-1-1-1-1 .448-1 1 .448 1 1 1zm10 0c.552 0 1-.448 1-1s-.448-1-1-1-1 .448-1 1 .448 1 1 1zm-5 13c.552 0 1-.448 1-1s-.448-1-1-1-1 .448-1 1 .448 1 1 1zm-17.39-65.29l-.8-1.384c-1.763 1.02-4.017.42-5.037-1.35l-.06-.1c-.89.17-1.83-.23-2.31-1.07-.61-1.06-.25-2.41.81-3.02 1.06-.61 2.41-.25 3.02.81.48.84.36 1.85-.23 2.54l.06.11c.62 1.06 1.97 1.43 3.03.82l1.274-.74c1.06-.62 1.42-1.96.808-3.03l-.06-.11c-.893.16-1.836-.24-2.32-1.07-.61-1.06-.245-2.41.81-3.02 1.06-.61 2.41-.25 3.02.81.48.83.36 1.85-.232 2.54l.06.1c1.02 1.76.43 4.01-1.34 5.04l.8 1.38c.9-.17 1.84.23 2.32 1.07.61 1.06.25 2.41-.81 3.02-1.06.61-2.41.25-3.02-.81-.48-.83-.36-1.85.24-2.54l-.01.02zm-5.932-4.378c.352-.203.473-.654.27-1.006-.204-.35-.655-.47-1.007-.27-.35.21-.47.66-.27 1.01.21.35.66.48 1.01.27h-.01zm6.38-3.684c.353-.203.474-.654.27-1.006-.203-.353-.653-.474-1.006-.27-.352.203-.473.654-.27 1.007.204.35.655.47 1.007.26v.01zm1.6 10.138c.352-.2.473-.65.27-1-.204-.36-.655-.48-1.007-.27-.35.2-.47.65-.27 1 .21.35.66.47 1.01.27l-.01.01zm-95.298 1.52l.43-1.18c-1.502-.54-2.276-2.21-1.728-3.71l.032-.09c-.552-.45-.786-1.22-.528-1.93.328-.9 1.325-1.36 2.227-1.032.9.327 1.37 1.323 1.04 2.225-.25.71-.93 1.15-1.64 1.144l-.03.09c-.33.91.14 1.91 1.04 2.23l1.09.4c.91.33 1.9-.13 2.23-1.04l.03-.09c-.55-.45-.78-1.22-.53-1.93.33-.9 1.33-1.36 2.23-1.03.9.33 1.37 1.33 1.04 2.23-.26.71-.93 1.15-1.64 1.15l-.03.09c-.54 1.51-2.2 2.28-3.71 1.74l-.43 1.18c.55.46.79 1.23.53 1.94-.33.9-1.32 1.37-2.22 1.04-.9-.33-1.37-1.32-1.04-2.22.26-.71.93-1.15 1.65-1.14l-.04-.05zm-.36-5.78c.3.11.633-.04.743-.34.11-.3-.04-.63-.34-.74-.3-.11-.63.05-.74.35-.11.3.05.63.35.74zm5.44 1.98c.3.11.633-.04.743-.34.11-.3-.04-.63-.34-.74-.3-.11-.63.05-.74.35-.11.3.05.64.35.74zm-5.294 6.08c.3.11.633-.05.743-.35.1-.3-.05-.63-.35-.74-.3-.11-.64.04-.75.34-.11.3.04.63.34.74l.017.01zM33.738 42.06l.807.963c1.225-1.03 3.05-.867 4.08.36l.062.07c.67-.25 1.45-.07 1.93.51.61.737.52 1.83-.22 2.45-.74.616-1.83.52-2.45-.215-.49-.58-.53-1.382-.17-2l-.06-.07c-.62-.738-1.72-.835-2.45-.218l-.89.743c-.74.62-.84 1.71-.22 2.45l.06.072c.67-.25 1.45-.07 1.94.51.62.735.52 1.83-.21 2.447-.74.614-1.83.52-2.45-.217-.49-.58-.53-1.383-.17-2l-.06-.07c-1.03-1.228-.88-3.05.35-4.083l-.81-.962c-.67.25-1.46.07-1.94-.51-.62-.737-.52-1.83.21-2.45.73-.616 1.83-.52 2.45.215.49.58.53 1.39.17 2h.04zm5.186 2.58c-.245.204-.277.57-.072.814.206.245.57.277.816.07.245-.204.277-.57.07-.814-.204-.245-.57-.277-.814-.07zm-4.436 3.72c-.244.205-.276.57-.07.816.205.246.57.277.815.07.245-.204.277-.57.07-.814-.204-.24-.57-.27-.814-.07h-.01zm-2.62-7.626c-.244.205-.276.57-.07.815.205.24.57.27.815.07.245-.21.277-.57.07-.82-.204-.25-.57-.28-.814-.07h-.01zM1.942 25.224l.7-.586c-.747-.89-.63-2.22.262-2.968l.053-.046c-.19-.48-.06-1.05.37-1.41.53-.44 1.33-.37 1.78.16.44.54.37 1.33-.16 1.78-.42.36-1.01.39-1.46.12l-.06.05c-.54.45-.61 1.25-.16 1.79l.54.65c.45.54 1.24.61 1.78.16l.05-.04c-.18-.49-.05-1.06.37-1.41.54-.45 1.33-.38 1.78.16.45.54.38 1.33-.16 1.78-.42.36-1.01.39-1.46.12l-.05.05c-.9.75-2.22.64-2.97-.25l-.7.59c.18.486.05 1.056-.37 1.41-.54.45-1.33.38-1.78-.16-.45-.53-.38-1.33.15-1.774.42-.36 1-.39 1.45-.12l.045-.056zm-.965 1.36c.15.18.41.2.59.053.18-.15.2-.415.05-.593-.15-.18-.42-.21-.59-.06-.18.15-.2.41-.05.59v.01zm24.87-23.7l-.7.588c.74.89.63 2.22-.27 2.97l-.05.044c.18.48.05 1.05-.37 1.41-.54.44-1.34.37-1.78-.16-.45-.54-.38-1.33.15-1.78.42-.36 1-.39 1.45-.12l.05-.05c.53-.45.6-1.25.15-1.79l-.54-.65c-.45-.54-1.25-.61-1.79-.16l-.05.04c.18.49.05 1.06-.37 1.41-.54.45-1.34.38-1.78-.16-.45-.54-.38-1.33.15-1.78.42-.36 1-.39 1.45-.12l.05-.04c.89-.75 2.21-.64 2.97.25l.7-.59c-.19-.49-.05-1.06.37-1.41.53-.45 1.33-.38 1.78.15.44.53.37 1.33-.16 1.77-.42.356-1.01.387-1.45.12l.04.06zm.96-1.36c-.15-.177-.42-.2-.6-.05-.18.15-.2.414-.05.592.15.18.41.21.59.06s.2-.41.05-.59l.01-.01zm66.03 58.36l-.7.588c.74.89.63 2.22-.27 2.97l-.05.044c.18.48.05 1.05-.37 1.41-.54.44-1.34.37-1.78-.16-.45-.54-.38-1.33.15-1.78.42-.36 1-.39 1.45-.12l.05-.05c.53-.45.6-1.25.16-1.79l-.54-.65c-.45-.54-1.25-.61-1.79-.16l-.05.04c.18.49.05 1.06-.37 1.41-.54.45-1.34.38-1.78-.16-.45-.54-.38-1.33.15-1.78.42-.36 1-.39 1.45-.12l.05-.05c.89-.75 2.22-.64 2.97.25l.7-.59c-.19-.486-.05-1.056.37-1.41.53-.45 1.33-.38 1.78.16.45.53.38 1.33-.16 1.774-.42.36-1.01.39-1.46.12l.04.057zm.96-1.36c-.15-.177-.42-.2-.6-.05-.18.15-.2.414-.05.592.15.18.41.21.59.06s.2-.41.05-.59l.01-.01zm2.65-52.66l.31-.86c-1.09-.398-1.66-1.606-1.26-2.7l.02-.065c-.41-.33-.58-.89-.39-1.41.24-.66.96-1 1.62-.76.65.24.99.97.75 1.62-.19.52-.68.84-1.2.84l-.02.07c-.24.66.1 1.39.75 1.62l.79.29c.66.24 1.38-.1 1.62-.76l.02-.06c-.408-.33-.578-.89-.39-1.41.24-.65.96-.99 1.62-.75.652.24.99.97.752 1.62-.19.52-.68.84-1.2.84l-.03.07c-.4 1.1-1.6 1.66-2.7 1.26l-.31.86c.4.33.57.89.38 1.41-.24.66-.97 1-1.62.76-.66-.24-1-.96-.76-1.62.19-.51.68-.83 1.2-.83l.04-.05zm-.16 1.66c.22.08.46-.035.54-.253.08-.22-.04-.46-.25-.54-.22-.08-.46.04-.54.26-.08.22.03.46.25.54zm106.21 43.2l1.88-1.085c-1.38-2.4-.56-5.45 1.84-6.84l.14-.08c-.228-1.22.317-2.49 1.45-3.15 1.433-.83 3.27-.34 4.096 1.1.83 1.43.337 3.27-1.098 4.1-1.14.65-2.52.48-3.45-.32l-.14.09c-1.45.83-1.94 2.67-1.11 4.11l1 1.73c.83 1.44 2.66 1.93 4.1 1.1l.14-.08c-.23-1.21.32-2.49 1.45-3.14 1.43-.83 3.27-.34 4.09 1.1.83 1.44.33 3.27-1.1 4.1-1.14.65-2.52.49-3.45-.32l-.14.08c-2.4 1.38-5.46.58-6.84-1.82l-1.88 1.09c.22 1.22-.32 2.49-1.45 3.15-1.44.83-3.27.34-4.1-1.1-.83-1.44-.34-3.27 1.09-4.1 1.13-.65 2.51-.49 3.45.32l.03-.04zm5.942-8.05c.27.48.88.643 1.36.367.47-.27.64-.88.36-1.36s-.89-.64-1.37-.36c-.48.28-.65.89-.37 1.37h.01zm5 8.66c.27.48.88.643 1.36.367.47-.27.64-.88.36-1.36s-.89-.64-1.37-.36c-.48.28-.65.89-.37 1.37h.01zm-13.76 2.17c.27.48.89.643 1.36.367.48-.27.65-.88.37-1.36-.27-.48-.89-.64-1.36-.36-.47.28-.64.89-.36 1.37h-.02z"/>
    <path id="c" fill-rule="evenodd" d="M209.254 12.975c-5.217-3.013-3.87-8.297-3.87-8.297s3.74-3.903 9.12-.797c5.38 3.11 3.87 8.3 3.87 8.3s-3.903 3.81-9.12.8zm.75-1.3c1.794 1.036 4.087.422 5.123-1.372 1.035-1.794.42-4.087-1.373-5.123-1.794-1.035-4.087-.42-5.123 1.373-1.03 1.794-.42 4.086 1.38 5.122zm.75-1.298c-1.076-.63-1.445-2-.824-3.08.63-1.08 2-1.45 3.08-.83s1.45 2 .83 3.07c-.62 1.07-2 1.44-3.07.82l-.016.02zM187.802 53.49c-4.82 0-6-4.2-6-4.2s1.03-4.2 6-4.2 6 4.2 6 4.2-1.18 4.2-6 4.2zm0-1.2c1.657 0 3-1.344 3-3 0-1.658-1.343-3-3-3s-3 1.342-3 3c0 1.656 1.343 3 3 3zm0-1.2c-.994 0-1.8-.807-1.8-1.8 0-.995.806-1.8 1.8-1.8s1.8.805 1.8 1.8c0 .993-.806 1.8-1.8 1.8zM140.07 76.72c-5.43 1.455-8.03-2.92-8.03-2.92s-.107-5.045 5.494-6.546c5.6-1.5 8.03 2.92 8.03 2.92s-.063 5.09-5.494 6.546zm-.362-1.352c1.867-.5 2.975-2.42 2.475-4.28-.5-1.86-2.42-2.97-4.28-2.47-1.86.5-2.97 2.42-2.47 4.29s2.42 2.98 4.29 2.48l-.015-.02zm-.362-1.35c-1.12.3-2.272-.36-2.572-1.48-.3-1.12.364-2.27 1.484-2.57 1.12-.3 2.272.37 2.572 1.49.3 1.12-.364 2.27-1.484 2.57v-.01zm-40.86-39.73c-3.49-.93-3.53-4.2-3.53-4.2s1.56-2.84 5.16-1.88 3.533 4.21 3.533 4.21-1.67 2.82-5.17 1.88v-.01zm.234-.87c1.2.33 2.434-.39 2.755-1.59.322-1.2-.39-2.43-1.59-2.75-1.2-.32-2.435.39-2.756 1.59-.33 1.2.39 2.44 1.59 2.76v-.01zm.233-.87c-.72-.19-1.14-.93-.95-1.65.2-.72.94-1.14 1.66-.95.72.2 1.15.94.96 1.66-.19.72-.93 1.15-1.65.96l-.02-.02zm32.54-26.26c-3.49-.94-3.53-4.21-3.53-4.21s1.56-2.844 5.16-1.88 3.53 4.207 3.53 4.207-1.67 2.813-5.16 1.878v.004zm.233-.87c1.2.32 2.434-.39 2.755-1.59.32-1.2-.39-2.436-1.59-2.757-1.2-.32-2.44.39-2.76 1.59-.32 1.2.39 2.44 1.59 2.76h.01zm.233-.87c-.72-.193-1.15-.933-.96-1.653.19-.72.93-1.146 1.65-.953.72.193 1.15.933.95 1.653-.2.72-.94 1.147-1.66.954h.01zM28.63 70.096c-3.275 1.524-5.408-.956-5.408-.956s-.632-3.18 2.747-4.756c3.37-1.575 5.4.953 5.4.953s.53 3.23-2.75 4.757l.01.003zm-.38-.82c1.127-.53 1.614-1.87 1.09-2.99-.526-1.13-1.865-1.62-2.99-1.09-1.127.52-1.614 1.86-1.09 2.99.526 1.123 1.865 1.61 2.99 1.09zm-.38-.82c-.675.315-1.478.02-1.794-.653-.315-.676-.022-1.48.653-1.795.67-.315 1.47-.02 1.79.653.31.68.02 1.48-.66 1.8h.01zM52.63 8.093c-3.275 1.527-5.408-.953-5.408-.953s-.632-3.18 2.748-4.755c3.377-1.575 5.408.953 5.408.953s.53 3.23-2.748 4.75v.006zm-.38-.816c1.127-.53 1.614-1.87 1.09-2.99-.526-1.13-1.865-1.62-2.99-1.09-1.127.52-1.614 1.86-1.09 2.99.526 1.12 1.865 1.61 2.99 1.09zm-.38-.82c-.675.31-1.478.02-1.794-.66-.315-.68-.022-1.48.653-1.8.67-.32 1.47-.02 1.79.65.31.67.02 1.47-.66 1.79l.01.02zm2.43 33.53c-2.81 0-3.5-2.45-3.5-2.45s.6-2.45 3.5-2.45 3.5 2.45 3.5 2.45-.69 2.45-3.5 2.45zm0-.7c.966 0 1.75-.783 1.75-1.75 0-.965-.784-1.75-1.75-1.75s-1.75.785-1.75 1.75c0 .967.784 1.75 1.75 1.75zm0-.7c-.58 0-1.05-.47-1.05-1.05 0-.58.47-1.05 1.05-1.05.58 0 1.05.47 1.05 1.05 0 .58-.47 1.05-1.05 1.05zm85.162-1.747c-2.642-.96-2.45-3.5-2.45-3.5s1.402-2.095 4.126-1.103c2.724.99 2.45 3.5 2.45 3.5s-1.484 2.066-4.126 1.104zm.24-.657c.908.33 1.912-.137 2.242-1.045.33-.91-.137-1.92-1.045-2.25-.91-.33-1.92.13-2.25 1.04-.33.91.13 1.91 1.04 2.24l.01.015zm.24-.657c-.546-.2-.827-.8-.63-1.346.2-.54.802-.82 1.347-.62.54.2.82.8.62 1.35-.2.55-.8.83-1.35.63l.01-.014zm35.783-22.574c-2.768.488-3.872-1.805-3.872-1.805s.166-2.517 3.022-3.02c2.855-.504 3.872 1.804 3.872 1.804s-.254 2.54-3.023 3.03zm-.12-.69c.95-.167 1.586-1.075 1.418-2.027-.167-.952-1.075-1.587-2.027-1.42-.952.168-1.587 1.076-1.42 2.028.168.952 1.076 1.587 2.028 1.42zm-.123-.69c-.57.102-1.115-.28-1.216-.85-.1-.572.28-1.116.852-1.217.57-.1 1.115.28 1.216.852.1.57-.28 1.114-.852 1.215z"/>
    <path id="d" fill-rule="evenodd" d="M2.453 7.11C-.19 6.15.003 3.61.003 3.61S1.405 1.516 4.13 2.508c2.723.99 2.45 3.5 2.45 3.5S5.094 8.073 2.452 7.11zm2.482-1.7c-.33.908-1.334 1.375-2.242 1.045L2.68 6.44c-.91-.33-1.37-1.33-1.04-2.24.33-.91 1.34-1.37 2.25-1.04.908.33 1.375 1.34 1.045 2.25zm-2.002.388c-.546-.2-.827-.8-.63-1.346.2-.54.802-.82 1.347-.62.54.2.82.8.62 1.35-.2.55-.8.83-1.35.63l.013-.014z"/>
  </defs>
</svg>
