<?xml version="1.0" standalone="no"?>
<!DOCTYPE svg PUBLIC "-//W3C//DTD SVG 20010904//EN"
 "http://www.w3.org/TR/2001/REC-SVG-20010904/DTD/svg10.dtd">
<svg version="1.0" xmlns="http://www.w3.org/2000/svg"
 width="700.000000pt" height="700.000000pt" viewBox="0 0 700.000000 700.000000"
 preserveAspectRatio="xMidYMid meet">
<metadata>
Created by potrace 1.11, written by Peter Selinger 2001-2013
</metadata>
<g transform="translate(0.000000,700.000000) scale(0.100000,-0.100000)"
fill="#000000" stroke="none">
<path d="M3217 6550 c-1089 -105 -2020 -751 -2481 -1721 -190 -399 -281 -793
-293 -1254 -7 -318 22 -579 96 -844 16 -55 26 -103 23 -106 -3 -3 -90 -5 -194
-5 l-188 0 217 -435 218 -435 -218 -435 -217 -435 785 0 785 0 0 60 c0 33 2
60 5 60 3 0 45 -26 93 -58 484 -325 1068 -502 1652 -502 584 0 1168 177 1652
502 48 32 90 58 93 58 3 0 5 -27 5 -60 l0 -60 785 0 785 0 -217 435 -218 435
218 435 217 435 -188 0 c-104 0 -191 2 -194 5 -3 3 7 51 23 106 122 438 131
993 24 1459 -177 769 -627 1425 -1275 1857 -385 257 -790 411 -1265 483 -157
24 -571 35 -728 20z m1596 -1738 l437 -437 -526 -658 -526 -657 -698 0 -698 0
-526 657 -526 658 437 437 438 438 875 0 875 0 438 -438z m437 -2622 l0 -440
-1750 0 -1750 0 0 440 0 440 1750 0 1750 0 0 -440z m-3940 -440 l0 -440 -215
0 c-118 0 -215 2 -215 5 0 3 48 102 107 220 l108 215 -108 215 c-59 118 -107
217 -107 220 0 3 97 5 215 5 l215 0 0 -440z m4810 435 c0 -3 -48 -102 -107
-220 l-108 -215 108 -215 c59 -118 107 -217 107 -220 0 -3 -97 -5 -215 -5
l-215 0 0 440 0 440 215 0 c118 0 215 -2 215 -5z"/>
</g>
</svg>
