<?xml version="1.0" encoding="utf-8"?>
<!-- Generator: Adobe Illustrator 20.1.0, SVG Export Plug-In . SVG Version: 6.00 Build 0)  -->
<!DOCTYPE svg PUBLIC "-//W3C//DTD SVG 1.1//EN" "http://www.w3.org/Graphics/SVG/1.1/DTD/svg11.dtd">
<svg version="1.1" id="Layer_1" xmlns="http://www.w3.org/2000/svg" xmlns:xlink="http://www.w3.org/1999/xlink" x="0px" y="0px"
	 viewBox="0 0 128 128" enable-background="new 0 0 128 128" xml:space="preserve">
<path fill="#FFFFFF" d="M128,64c0-35.3-28.7-64-64-64S0,28.7,0,64c0,9.5,2.1,18.5,5.8,26.6l-3.1,1.2l5.8,7.4l4.9,6.2l0.9,8.8
	l0.9,9.1l8.6-3.3c2-0.8,4-1.4,6-2.1c9.9,6.3,21.7,10,34.3,10c12.6,0,24.4-3.7,34.3-10c2,0.7,4.1,1.4,6,2.1l8.6,3.3l0.9-9.1l0.9-8.8
	l4.9-6.2l5.8-7.4l-3.2-1.2C125.9,82.5,128,73.5,128,64z M106.9,113.6l0.2-2.3c0,0,0,0,0,0L106.9,113.6L106.9,113.6z"/>
<g>
	<polygon fill="#FF1D25" points="54.2,53.5 73.8,53.5 64,41 	"/>
	<polygon fill="#FF1D25" points="46.8,40 51.4,52.2 61,40 	"/>
	<polygon fill="#FF1D25" points="67,40 76.6,52.2 81.2,40 	"/>
	<polygon fill="#FF1D25" points="83.8,41.6 79.3,53.5 92.7,53.5 	"/>
	<polygon fill="#FF1D25" points="35.3,53.5 48.7,53.5 44.2,41.6 	"/>
	<path fill="#FF1D25" d="M122,64l1.8-4.7l-2.5-4.4l1.1-4.9l-3.2-3.9l0.3-5l-3.8-3.4l-0.5-5l-4.2-2.7l-1.3-4.9l-4.6-2l-2-4.6
		l-4.9-1.3l-2.7-4.2l-5-0.5L87,8.6l-5,0.3L78,5.7l-4.9,1.1l-4.4-2.5L64,6l-4.7-1.8l-4.4,2.5L50,5.7l-3.9,3.2l-5-0.3l-3.4,3.8l-5,0.5
		l-2.7,4.2L25,18.4L23,23l-4.6,2l-1.3,4.9l-4.2,2.7l-0.5,5L8.6,41l0.3,5L5.7,50l1.1,4.9l-2.5,4.4L6,64l-1.8,4.7l2.5,4.4L5.7,78
		l3.2,3.9l-0.3,5l3.8,3.4l0.2,2l-3.4,1.3l2.5,3.2l5.6,7.1l1,10l0.4,3.9l3.7-1.4c3-1.2,6-2.2,9.1-3.1l1.2,1.9l5,0.5l3.4,3.8l5-0.3
		l3.9,3.2l4.9-1.1l4.4,2.5L64,122l4.7,1.8l4.4-2.5l4.9,1.1l3.9-3.2l5,0.3l3.4-3.8l5-0.5l1.2-1.9c3.1,0.9,6.2,2,9.2,3.2l3.7,1.4
		l0.4-3.9l1-10l5.6-7.1l2.5-3.2l-3.5-1.3l0.2-2l3.8-3.4l-0.3-5l3.2-3.9l-1.1-4.9l2.5-4.4L122,64z M17.4,46
		C22,34.1,31.1,24.2,42.7,18.8c6.7-3.1,14-4.8,21.3-4.8c13,0,25.7,5.2,35,14.3c9.3,9.1,14.7,21.6,15,34.6c0.2,9.3-2.2,18.5-6.9,26.5
		c-0.8-0.3-1.7-0.5-2.5-0.8l0.9-3.3l0.8-2.9l-0.2-0.1c5.2-11.8,5-25.6-0.3-37.3c-4.6-10-12.8-18.2-22.9-22.7
		c-10.4-4.7-22.5-5.3-33.4-1.7c-10.4,3.5-19.4,10.8-25,20.3c-6.3,10.7-8,23.9-4.5,35.9c0.5,1.8,1.1,3.5,1.8,5.2l0,0l0.7,2.9l1,3.7
		c-0.9,0.3-1.8,0.5-2.7,0.8C13.2,76.3,11.9,60.1,17.4,46z M101.4,47.1c-4.1-9-11.5-16.4-20.5-20.5C75.6,24.3,69.8,23,64,23
		c-10.1,0-20,3.8-27.5,10.6c-7.4,6.7-12.2,16.1-13.2,26c-0.8,7.2,0.4,14.5,3.3,21c-0.6,0.1-1.2,0.3-1.8,0.4C19.9,70,20.1,57,25.2,46
		c4.4-9.4,12.2-17,21.6-21.2c9.8-4.3,21.2-4.8,31.3-1.2C87.9,27,96.3,34,101.4,43c5.8,10.2,7.1,22.6,3.5,33.8
		c-0.5,1.6-1.1,3.2-1.8,4.7c-0.6-0.2-1.2-0.3-1.8-0.5C106.2,70.3,106.2,57.8,101.4,47.1z M78.2,56.5l-7.5,20c-1.1,0-2.1-0.1-3.2-0.1
		L75,56.5H53l7.5,19.8c-1.1,0-2.1,0-3.2,0.1l-7.5-19.9H35.7l18.2,20.1c-1.3,0.1-2.5,0.2-3.8,0.3L30.4,55.1L43.9,37h40.2l13.5,18.1
		L77.8,77c-1.3-0.1-2.5-0.2-3.8-0.3l18.3-20.2H78.2z M40.1,107.9c-6.4,1.4-12.7,3.3-18.9,5.7l-1.1-10.9l-2.7-3.5L14,95
		c3.4-1.3,6.8-2.5,10.3-3.5l3.3,12.7l0.7,2.9l2.9-0.7c2.8-0.7,5.6-1.3,8.4-1.9l0.7,3.4C40.3,107.9,40.2,107.9,40.1,107.9z
		 M84.8,107.3l-0.5,2.4c-12.8,5.7-27.7,5.7-40.6,0l-0.5-2.4l-0.6-2.8c13.2,7,29.4,7,42.6,0L84.8,107.3z M47.1,103.3
		c1.3-0.2,2.7-0.3,4-0.4c8.2,2.7,17.2,2.8,25.4,0.1c1.3,0.1,2.7,0.3,4,0.5c-10,4.2-21.3,4.4-31.4,0.7c0,0,0,0,0,0c0,0,0,0,0,0
		C48.7,104,48.1,103.7,47.1,103.3z M86.3,101.3c-1.3-0.2-2.7-0.5-4.1-0.6l0,0c-14.3-2.1-29-1.8-43.2,0.9v0c-2.9,0.5-5.8,1.2-8.6,1.9
		l-5-19.4c19.6-5,40.2-6,60.2-3.1c5.7,0.8,11.3,2,16.9,3.5l-0.9,3.3l-0.5,1.8l-3.8,14.2C93.8,102.8,90.1,102,86.3,101.3z
		 M112.4,97.2l-4.4,5.6l-1.1,10.9c-6.2-2.4-12.6-4.3-19.1-5.7l0.6-3.1c2.8,0.5,5.5,1.2,8.3,1.9l2.9,0.8l0.8-2.9l3.5-13.1
		c3.5,1,6.9,2.2,10.3,3.5L112.4,97.2L112.4,97.2z"/>
	<path fill="#FF1D25" d="M37.8,86.3c-0.2-1.3-1.2-2.1-2.8-1.8c-1.6,0.3-2.3,1.4-2,2.7l1.8,9.9c0.2,1.3,1.2,2.1,2.8,1.8
		c1.6-0.3,2.3-1.4,2-2.7L37.8,86.3z M37.2,97c-0.2,0-0.3,0-0.4-0.4L35,86.8c-0.1-0.4,0.1-0.5,0.2-0.5c0.1,0,0.3,0,0.4,0.4l1.8,9.9
		C37.5,96.9,37.4,97,37.2,97z"/>
	<path fill="#FF1D25" d="M46.7,85.4c-0.1-0.6,0.1-0.8,0.3-0.9c0.3,0,0.5,0.2,0.6,0.8l0.2,1.8l1.8-0.2l-0.2-2.2
		c-0.1-1.3-0.9-2.2-2.6-2c-1.6,0.2-2.2,1.4-2,3.3c0.5,5.1,3.3,4.6,3.7,8.3c0.1,0.8-0.2,1.1-0.5,1.1c-0.3,0-0.6-0.2-0.7-0.8l-0.2-1.9
		l-1.8,0.2l0.2,2.4c0.1,1.3,1,2.2,2.7,2s2.3-1.5,2.1-3.7C49.8,88.5,47.2,90.1,46.7,85.4z"/>
	<path fill="#FF1D25" d="M58.8,83.8c0.3,0,0.5,0.2,0.5,0.9l0.1,1.8l1.8-0.1L61,84.2c0-1.3-0.7-2.2-2.4-2.2c-1.7,0-2.3,1.3-2.2,3.1
		c0.2,5.1,2.9,4.8,3,8.6c0,0.8-0.2,1.1-0.5,1.1c-0.3,0-0.6-0.2-0.6-0.9l-0.1-1.9L56.4,92l0.1,2.4c0,1.3,0.9,2.2,2.5,2.2
		c1.7,0,2.4-1.3,2.4-3.5c-0.2-5.1-2.9-3.7-3-8.4C58.3,84,58.5,83.8,58.8,83.8z"/>
	<polygon fill="#FF1D25" points="67.5,96.4 71.5,96.6 71.6,94.6 69.7,94.6 69.9,90.2 71.5,90.3 71.6,88.3 70,88.2 70.1,84.1
		72,84.2 72.1,82.2 68,82 	"/>
	<path fill="#FF1D25" d="M82,83.1l-3-0.3l-1.7,14.3l2.1,0.2l0.7-6.3l0.2,0c0.2,0,0.4,0.1,0.3,0.5l-0.4,3.6c-0.2,1.6,0.4,2.5,1.5,2.6
		c0.3,0,0.6,0,0.9-0.1l0.2-1.8c-0.1,0-0.2,0-0.2,0c-0.2,0-0.2-0.2-0.2-0.5l0.4-3.4c0.1-1.1-0.4-1.7-1-1.9c0.5-0.1,1.3-0.5,1.5-1.7
		l0.3-2.6C83.8,84.1,83.1,83.2,82,83.1z M81.1,88.7c0,0.3-0.3,0.4-0.4,0.4l-0.2,0l0.5-4.1l0.2,0c0.2,0,0.4,0.1,0.3,0.5L81.1,88.7z"
		/>
	<polygon fill="#FF1D25" points="90.5,86.3 92,86.6 89.6,98.8 91.7,99.2 94.1,87 95.6,87.3 95.9,85.4 90.9,84.4 	"/>
</g>
</svg>
